<mxfile host="65bd71144e">
    <diagram id="KAlYoIRTn1s9iT7XNZit" name="Page-1">
        <mxGraphModel dx="1173" dy="766" grid="1" gridSize="10" guides="1" tooltips="1" connect="1" arrows="1" fold="1" page="1" pageScale="1" pageWidth="850" pageHeight="1100" math="0" shadow="0">
            <root>
                <mxCell id="0"/>
                <mxCell id="1" parent="0"/>
                <mxCell id="102" value="" style="group;movable=0;resizable=0;rotatable=0;deletable=0;editable=0;connectable=0;" vertex="1" connectable="0" parent="1">
                    <mxGeometry x="100" y="190" width="790" height="420" as="geometry"/>
                </mxCell>
                <mxCell id="87" value="" style="group;movable=1;resizable=1;rotatable=1;deletable=1;editable=1;connectable=1;" parent="102" vertex="1" connectable="0">
                    <mxGeometry width="610" height="420" as="geometry"/>
                </mxCell>
                <mxCell id="2" value="Block Descriptor" style="swimlane;fontStyle=1;align=center;verticalAlign=top;childLayout=stackLayout;horizontal=1;startSize=26;horizontalStack=0;resizeParent=1;resizeParentMax=0;resizeLast=0;collapsible=1;marginBottom=0;fontFamily=Verdana;fontSize=11;fillColor=#ffe6cc;strokeColor=#d79b00;movable=1;resizable=1;rotatable=1;deletable=1;editable=1;connectable=1;" parent="87" vertex="1">
                    <mxGeometry x="255" y="40" width="140" height="78" as="geometry"/>
                </mxCell>
                <mxCell id="3" value="Block Size: N bytes" style="text;strokeColor=#d79b00;fillColor=#ffe6cc;align=center;verticalAlign=top;spacingLeft=4;spacingRight=4;overflow=hidden;rotatable=1;points=[[0,0.5],[1,0.5]];portConstraint=eastwest;fontFamily=Verdana;fontSize=11;movable=1;resizable=1;deletable=1;editable=1;connectable=1;" parent="2" vertex="1">
                    <mxGeometry y="26" width="140" height="26" as="geometry"/>
                </mxCell>
                <mxCell id="5" value="Free Block List" style="text;strokeColor=#d79b00;fillColor=#ffe6cc;align=center;verticalAlign=top;spacingLeft=4;spacingRight=4;overflow=hidden;rotatable=1;points=[[0,0.5],[1,0.5]];portConstraint=eastwest;fontFamily=Verdana;fontSize=11;movable=1;resizable=1;deletable=1;editable=1;connectable=1;" parent="2" vertex="1">
                    <mxGeometry y="52" width="140" height="26" as="geometry"/>
                </mxCell>
                <mxCell id="6" value="Page" style="swimlane;fontStyle=1;align=center;verticalAlign=top;childLayout=stackLayout;horizontal=1;startSize=26;horizontalStack=0;resizeParent=1;resizeParentMax=0;resizeLast=0;collapsible=1;marginBottom=0;strokeColor=#82b366;fontFamily=Verdana;fontSize=11;fillColor=#d5e8d4;movable=1;resizable=1;rotatable=1;deletable=1;editable=1;connectable=1;" parent="87" vertex="1">
                    <mxGeometry x="40" y="160" width="160" height="234" as="geometry"/>
                </mxCell>
                <mxCell id="11" value="Arena" style="swimlane;fontStyle=1;align=center;verticalAlign=top;childLayout=stackLayout;horizontal=1;startSize=26;horizontalStack=0;resizeParent=1;resizeParentMax=0;resizeLast=0;collapsible=1;marginBottom=0;strokeColor=#6c8ebf;fontFamily=Verdana;fontSize=11;fillColor=#dae8fc;movable=1;resizable=1;rotatable=1;deletable=1;editable=1;connectable=1;" parent="6" vertex="1">
                    <mxGeometry y="26" width="160" height="104" as="geometry"/>
                </mxCell>
                <mxCell id="12" value="Free Block Count: 3" style="text;strokeColor=#6c8ebf;fillColor=#dae8fc;align=center;verticalAlign=top;spacingLeft=4;spacingRight=4;overflow=hidden;rotatable=1;points=[[0,0.5],[1,0.5]];portConstraint=eastwest;fontFamily=Verdana;fontSize=11;movable=1;resizable=1;deletable=1;editable=1;connectable=1;" parent="11" vertex="1">
                    <mxGeometry y="26" width="160" height="26" as="geometry"/>
                </mxCell>
                <mxCell id="14" value="Block Descriptor" style="text;strokeColor=#6c8ebf;fillColor=#dae8fc;align=center;verticalAlign=top;spacingLeft=4;spacingRight=4;overflow=hidden;rotatable=1;points=[[0,0.5],[1,0.5]];portConstraint=eastwest;fontFamily=Verdana;fontSize=11;movable=1;resizable=1;deletable=1;editable=1;connectable=1;" parent="11" vertex="1">
                    <mxGeometry y="52" width="160" height="26" as="geometry"/>
                </mxCell>
                <mxCell id="61" value="Large: False" style="text;strokeColor=#6c8ebf;fillColor=#dae8fc;align=center;verticalAlign=top;spacingLeft=4;spacingRight=4;overflow=hidden;rotatable=1;points=[[0,0.5],[1,0.5]];portConstraint=eastwest;fontFamily=Verdana;fontSize=11;movable=1;resizable=1;deletable=1;editable=1;connectable=1;" parent="11" vertex="1">
                    <mxGeometry y="78" width="160" height="26" as="geometry"/>
                </mxCell>
                <mxCell id="7" value="Free N-Byte Block" style="text;strokeColor=#82b366;fillColor=#d5e8d4;align=center;verticalAlign=top;spacingLeft=4;spacingRight=4;overflow=hidden;rotatable=1;points=[[0,0.5],[1,0.5]];portConstraint=eastwest;fontFamily=Verdana;fontSize=11;movable=1;resizable=1;deletable=1;editable=1;connectable=1;" parent="6" vertex="1">
                    <mxGeometry y="130" width="160" height="26" as="geometry"/>
                </mxCell>
                <mxCell id="80" style="edgeStyle=elbowEdgeStyle;html=1;entryX=0;entryY=0.5;entryDx=0;entryDy=0;fontSize=11;movable=1;resizable=1;rotatable=1;deletable=1;editable=1;connectable=1;" parent="6" source="16" target="17" edge="1">
                    <mxGeometry relative="1" as="geometry">
                        <Array as="points">
                            <mxPoint x="-20" y="200"/>
                        </Array>
                    </mxGeometry>
                </mxCell>
                <mxCell id="16" value="Free N-Byte Block" style="text;strokeColor=#82b366;fillColor=#d5e8d4;align=center;verticalAlign=top;spacingLeft=4;spacingRight=4;overflow=hidden;rotatable=1;points=[[0,0.5],[1,0.5]];portConstraint=eastwest;fontFamily=Verdana;fontSize=11;movable=1;resizable=1;deletable=1;editable=1;connectable=1;" parent="6" vertex="1">
                    <mxGeometry y="156" width="160" height="26" as="geometry"/>
                </mxCell>
                <mxCell id="15" value="Occupied N-Byte Block" style="text;strokeColor=#82b366;fillColor=#d5e8d4;align=center;verticalAlign=top;spacingLeft=4;spacingRight=4;overflow=hidden;rotatable=1;points=[[0,0.5],[1,0.5]];portConstraint=eastwest;fontFamily=Verdana;fontSize=11;movable=1;resizable=1;deletable=1;editable=1;connectable=1;" parent="6" vertex="1">
                    <mxGeometry y="182" width="160" height="26" as="geometry"/>
                </mxCell>
                <mxCell id="17" value="Free N-Byte Block" style="text;strokeColor=#82b366;fillColor=#d5e8d4;align=center;verticalAlign=top;spacingLeft=4;spacingRight=4;overflow=hidden;rotatable=1;points=[[0,0.5],[1,0.5]];portConstraint=eastwest;fontFamily=Verdana;fontSize=11;movable=1;resizable=1;deletable=1;editable=1;connectable=1;" parent="6" vertex="1">
                    <mxGeometry y="208" width="160" height="26" as="geometry"/>
                </mxCell>
                <mxCell id="79" style="edgeStyle=elbowEdgeStyle;html=1;fontSize=11;entryX=1;entryY=0.5;entryDx=0;entryDy=0;movable=1;resizable=1;rotatable=1;deletable=1;editable=1;connectable=1;" parent="6" source="7" target="16" edge="1">
                    <mxGeometry relative="1" as="geometry">
                        <mxPoint x="190" y="170" as="targetPoint"/>
                        <Array as="points">
                            <mxPoint x="180" y="160"/>
                            <mxPoint x="190" y="170"/>
                        </Array>
                    </mxGeometry>
                </mxCell>
                <mxCell id="45" value="Page" style="swimlane;fontStyle=1;align=center;verticalAlign=top;childLayout=stackLayout;horizontal=1;startSize=26;horizontalStack=0;resizeParent=1;resizeParentMax=0;resizeLast=0;collapsible=1;marginBottom=0;strokeColor=#82b366;fontFamily=Verdana;fontSize=11;fillColor=#d5e8d4;movable=1;resizable=1;rotatable=1;deletable=1;editable=1;connectable=1;" parent="87" vertex="1">
                    <mxGeometry x="250" y="160" width="160" height="234" as="geometry"/>
                </mxCell>
                <mxCell id="46" value="Arena" style="swimlane;fontStyle=1;align=center;verticalAlign=top;childLayout=stackLayout;horizontal=1;startSize=26;horizontalStack=0;resizeParent=1;resizeParentMax=0;resizeLast=0;collapsible=1;marginBottom=0;strokeColor=#6c8ebf;fontFamily=Verdana;fontSize=11;fillColor=#dae8fc;movable=1;resizable=1;rotatable=1;deletable=1;editable=1;connectable=1;" parent="45" vertex="1">
                    <mxGeometry y="26" width="160" height="104" as="geometry"/>
                </mxCell>
                <mxCell id="47" value="Free Block Count: 1" style="text;strokeColor=#6c8ebf;fillColor=#dae8fc;align=center;verticalAlign=top;spacingLeft=4;spacingRight=4;overflow=hidden;rotatable=1;points=[[0,0.5],[1,0.5]];portConstraint=eastwest;fontFamily=Verdana;fontSize=11;movable=1;resizable=1;deletable=1;editable=1;connectable=1;" parent="46" vertex="1">
                    <mxGeometry y="26" width="160" height="26" as="geometry"/>
                </mxCell>
                <mxCell id="48" value="Block Descriptor" style="text;strokeColor=#6c8ebf;fillColor=#dae8fc;align=center;verticalAlign=top;spacingLeft=4;spacingRight=4;overflow=hidden;rotatable=1;points=[[0,0.5],[1,0.5]];portConstraint=eastwest;fontFamily=Verdana;fontSize=11;movable=1;resizable=1;deletable=1;editable=1;connectable=1;" parent="46" vertex="1">
                    <mxGeometry y="52" width="160" height="26" as="geometry"/>
                </mxCell>
                <mxCell id="62" value="Large: False" style="text;strokeColor=#6c8ebf;fillColor=#dae8fc;align=center;verticalAlign=top;spacingLeft=4;spacingRight=4;overflow=hidden;rotatable=1;points=[[0,0.5],[1,0.5]];portConstraint=eastwest;fontFamily=Verdana;fontSize=11;movable=1;resizable=1;deletable=1;editable=1;connectable=1;" parent="46" vertex="1">
                    <mxGeometry y="78" width="160" height="26" as="geometry"/>
                </mxCell>
                <mxCell id="49" value="Free N-Byte Block" style="text;strokeColor=#82b366;fillColor=#d5e8d4;align=center;verticalAlign=top;spacingLeft=4;spacingRight=4;overflow=hidden;rotatable=1;points=[[0,0.5],[1,0.5]];portConstraint=eastwest;fontFamily=Verdana;fontSize=11;movable=1;resizable=1;deletable=1;editable=1;connectable=1;" parent="45" vertex="1">
                    <mxGeometry y="130" width="160" height="26" as="geometry"/>
                </mxCell>
                <mxCell id="50" value="Occupied N-Byte Block" style="text;strokeColor=#82b366;fillColor=#d5e8d4;align=center;verticalAlign=top;spacingLeft=4;spacingRight=4;overflow=hidden;rotatable=1;points=[[0,0.5],[1,0.5]];portConstraint=eastwest;fontFamily=Verdana;fontSize=11;movable=1;resizable=1;deletable=1;editable=1;connectable=1;" parent="45" vertex="1">
                    <mxGeometry y="156" width="160" height="26" as="geometry"/>
                </mxCell>
                <mxCell id="51" value="Occupied N-Byte Block" style="text;strokeColor=#82b366;fillColor=#d5e8d4;align=center;verticalAlign=top;spacingLeft=4;spacingRight=4;overflow=hidden;rotatable=1;points=[[0,0.5],[1,0.5]];portConstraint=eastwest;fontFamily=Verdana;fontSize=11;movable=1;resizable=1;deletable=1;editable=1;connectable=1;" parent="45" vertex="1">
                    <mxGeometry y="182" width="160" height="26" as="geometry"/>
                </mxCell>
                <mxCell id="52" value="Occupied N-Byte Block" style="text;strokeColor=#82b366;fillColor=#d5e8d4;align=center;verticalAlign=top;spacingLeft=4;spacingRight=4;overflow=hidden;rotatable=1;points=[[0,0.5],[1,0.5]];portConstraint=eastwest;fontFamily=Verdana;fontSize=11;movable=1;resizable=1;deletable=1;editable=1;connectable=1;" parent="45" vertex="1">
                    <mxGeometry y="208" width="160" height="26" as="geometry"/>
                </mxCell>
                <mxCell id="53" value="Page" style="swimlane;fontStyle=1;align=center;verticalAlign=top;childLayout=stackLayout;horizontal=1;startSize=26;horizontalStack=0;resizeParent=1;resizeParentMax=0;resizeLast=0;collapsible=1;marginBottom=0;strokeColor=#82b366;fontFamily=Verdana;fontSize=11;fillColor=#d5e8d4;movable=1;resizable=1;rotatable=1;deletable=1;editable=1;connectable=1;" parent="87" vertex="1">
                    <mxGeometry x="440" y="160" width="160" height="234" as="geometry"/>
                </mxCell>
                <mxCell id="54" value="Arena" style="swimlane;fontStyle=1;align=center;verticalAlign=top;childLayout=stackLayout;horizontal=1;startSize=26;horizontalStack=0;resizeParent=1;resizeParentMax=0;resizeLast=0;collapsible=1;marginBottom=0;strokeColor=#6c8ebf;fontFamily=Verdana;fontSize=11;fillColor=#dae8fc;movable=1;resizable=1;rotatable=1;deletable=1;editable=1;connectable=1;" parent="53" vertex="1">
                    <mxGeometry y="26" width="160" height="104" as="geometry"/>
                </mxCell>
                <mxCell id="55" value="Free Block Count: 0" style="text;strokeColor=#6c8ebf;fillColor=#dae8fc;align=center;verticalAlign=top;spacingLeft=4;spacingRight=4;overflow=hidden;rotatable=1;points=[[0,0.5],[1,0.5]];portConstraint=eastwest;fontFamily=Verdana;fontSize=11;movable=1;resizable=1;deletable=1;editable=1;connectable=1;" parent="54" vertex="1">
                    <mxGeometry y="26" width="160" height="26" as="geometry"/>
                </mxCell>
                <mxCell id="56" value="Block Descriptor" style="text;strokeColor=#6c8ebf;fillColor=#dae8fc;align=center;verticalAlign=top;spacingLeft=4;spacingRight=4;overflow=hidden;rotatable=1;points=[[0,0.5],[1,0.5]];portConstraint=eastwest;fontFamily=Verdana;fontSize=11;movable=1;resizable=1;deletable=1;editable=1;connectable=1;" parent="54" vertex="1">
                    <mxGeometry y="52" width="160" height="26" as="geometry"/>
                </mxCell>
                <mxCell id="63" value="Large: False" style="text;strokeColor=#6c8ebf;fillColor=#dae8fc;align=center;verticalAlign=top;spacingLeft=4;spacingRight=4;overflow=hidden;rotatable=1;points=[[0,0.5],[1,0.5]];portConstraint=eastwest;fontFamily=Verdana;fontSize=11;movable=1;resizable=1;deletable=1;editable=1;connectable=1;" parent="54" vertex="1">
                    <mxGeometry y="78" width="160" height="26" as="geometry"/>
                </mxCell>
                <mxCell id="57" value="Occupied N-Byte Block" style="text;strokeColor=#82b366;fillColor=#d5e8d4;align=center;verticalAlign=top;spacingLeft=4;spacingRight=4;overflow=hidden;rotatable=1;points=[[0,0.5],[1,0.5]];portConstraint=eastwest;fontFamily=Verdana;fontSize=11;movable=1;resizable=1;deletable=1;editable=1;connectable=1;" parent="53" vertex="1">
                    <mxGeometry y="130" width="160" height="26" as="geometry"/>
                </mxCell>
                <mxCell id="58" value="Occupied N-Byte Block" style="text;strokeColor=#82b366;fillColor=#d5e8d4;align=center;verticalAlign=top;spacingLeft=4;spacingRight=4;overflow=hidden;rotatable=1;points=[[0,0.5],[1,0.5]];portConstraint=eastwest;fontFamily=Verdana;fontSize=11;movable=1;resizable=1;deletable=1;editable=1;connectable=1;" parent="53" vertex="1">
                    <mxGeometry y="156" width="160" height="26" as="geometry"/>
                </mxCell>
                <mxCell id="59" value="Occupied N-Byte Block" style="text;strokeColor=#82b366;fillColor=#d5e8d4;align=center;verticalAlign=top;spacingLeft=4;spacingRight=4;overflow=hidden;rotatable=1;points=[[0,0.5],[1,0.5]];portConstraint=eastwest;fontFamily=Verdana;fontSize=11;movable=1;resizable=1;deletable=1;editable=1;connectable=1;" parent="53" vertex="1">
                    <mxGeometry y="182" width="160" height="26" as="geometry"/>
                </mxCell>
                <mxCell id="60" value="Occupied N-Byte Block" style="text;strokeColor=#82b366;fillColor=#d5e8d4;align=center;verticalAlign=top;spacingLeft=4;spacingRight=4;overflow=hidden;rotatable=1;points=[[0,0.5],[1,0.5]];portConstraint=eastwest;fontFamily=Verdana;fontSize=11;movable=1;resizable=1;deletable=1;editable=1;connectable=1;" parent="53" vertex="1">
                    <mxGeometry y="208" width="160" height="26" as="geometry"/>
                </mxCell>
                <mxCell id="73" style="edgeStyle=elbowEdgeStyle;html=1;entryX=0;entryY=0.5;entryDx=0;entryDy=0;fontSize=11;movable=1;resizable=1;rotatable=1;deletable=1;editable=1;connectable=1;" parent="87" source="5" target="7" edge="1">
                    <mxGeometry relative="1" as="geometry">
                        <Array as="points">
                            <mxPoint y="420"/>
                        </Array>
                    </mxGeometry>
                </mxCell>
                <mxCell id="81" style="edgeStyle=elbowEdgeStyle;html=1;entryX=0;entryY=0.5;entryDx=0;entryDy=0;fontSize=11;movable=1;resizable=1;rotatable=1;deletable=1;editable=1;connectable=1;" parent="87" source="17" target="49" edge="1">
                    <mxGeometry relative="1" as="geometry">
                        <Array as="points">
                            <mxPoint x="230" y="350"/>
                            <mxPoint x="240" y="350"/>
                        </Array>
                    </mxGeometry>
                </mxCell>
                <mxCell id="83" style="edgeStyle=elbowEdgeStyle;html=1;fontSize=11;entryX=0;entryY=0.25;entryDx=0;entryDy=0;jumpStyle=arc;movable=1;resizable=1;rotatable=1;deletable=1;editable=1;connectable=1;" parent="87" source="14" target="2" edge="1">
                    <mxGeometry relative="1" as="geometry">
                        <mxPoint x="260" y="80" as="targetPoint"/>
                        <Array as="points">
                            <mxPoint x="220" y="130"/>
                        </Array>
                    </mxGeometry>
                </mxCell>
                <mxCell id="85" style="edgeStyle=elbowEdgeStyle;jumpStyle=arc;html=1;fontSize=11;entryX=1;entryY=0.25;entryDx=0;entryDy=0;movable=1;resizable=1;rotatable=1;deletable=1;editable=1;connectable=1;" parent="87" source="48" target="2" edge="1">
                    <mxGeometry relative="1" as="geometry">
                        <mxPoint x="400" y="20" as="targetPoint"/>
                        <Array as="points">
                            <mxPoint x="420" y="110"/>
                        </Array>
                    </mxGeometry>
                </mxCell>
                <mxCell id="86" style="edgeStyle=elbowEdgeStyle;jumpStyle=arc;html=1;fontSize=11;entryX=1.002;entryY=0.125;entryDx=0;entryDy=0;entryPerimeter=0;movable=1;resizable=1;rotatable=1;deletable=1;editable=1;connectable=1;" parent="87" source="56" target="2" edge="1">
                    <mxGeometry relative="1" as="geometry">
                        <mxPoint x="400" y="12" as="targetPoint"/>
                        <Array as="points">
                            <mxPoint x="610" y="140"/>
                        </Array>
                    </mxGeometry>
                </mxCell>
                <mxCell id="88" value="Pages" style="swimlane;fontStyle=1;align=center;verticalAlign=top;childLayout=stackLayout;horizontal=1;startSize=26;horizontalStack=0;resizeParent=1;resizeParentMax=0;resizeLast=0;collapsible=1;marginBottom=0;strokeColor=#d6b656;fontFamily=Verdana;fontSize=11;fillColor=#fff2cc;movable=1;resizable=1;rotatable=1;deletable=1;editable=1;connectable=1;" parent="102" vertex="1">
                    <mxGeometry x="630" y="160" width="160" height="208" as="geometry"/>
                </mxCell>
                <mxCell id="89" value="Arena" style="swimlane;fontStyle=1;align=center;verticalAlign=top;childLayout=stackLayout;horizontal=1;startSize=26;horizontalStack=0;resizeParent=1;resizeParentMax=0;resizeLast=0;collapsible=1;marginBottom=0;strokeColor=#6c8ebf;fontFamily=Verdana;fontSize=11;fillColor=#dae8fc;movable=1;resizable=1;rotatable=1;deletable=1;editable=1;connectable=1;" parent="88" vertex="1">
                    <mxGeometry y="26" width="160" height="104" as="geometry"/>
                </mxCell>
                <mxCell id="90" value="Free Block Count: 3" style="text;strokeColor=#6c8ebf;fillColor=#dae8fc;align=center;verticalAlign=top;spacingLeft=4;spacingRight=4;overflow=hidden;rotatable=1;points=[[0,0.5],[1,0.5]];portConstraint=eastwest;fontFamily=Verdana;fontSize=11;movable=1;resizable=1;deletable=1;editable=1;connectable=1;" parent="89" vertex="1">
                    <mxGeometry y="26" width="160" height="26" as="geometry"/>
                </mxCell>
                <mxCell id="91" value="Block Descriptor: NULL" style="text;strokeColor=#6c8ebf;fillColor=#dae8fc;align=center;verticalAlign=top;spacingLeft=4;spacingRight=4;overflow=hidden;rotatable=1;points=[[0,0.5],[1,0.5]];portConstraint=eastwest;fontFamily=Verdana;fontSize=11;movable=1;resizable=1;deletable=1;editable=1;connectable=1;" parent="89" vertex="1">
                    <mxGeometry y="52" width="160" height="26" as="geometry"/>
                </mxCell>
                <mxCell id="92" value="Large: True" style="text;strokeColor=#6c8ebf;fillColor=#dae8fc;align=center;verticalAlign=top;spacingLeft=4;spacingRight=4;overflow=hidden;rotatable=1;points=[[0,0.5],[1,0.5]];portConstraint=eastwest;fontFamily=Verdana;fontSize=11;movable=1;resizable=1;deletable=1;editable=1;connectable=1;" parent="89" vertex="1">
                    <mxGeometry y="78" width="160" height="26" as="geometry"/>
                </mxCell>
                <mxCell id="93" value="Page" style="text;strokeColor=#d6b656;fillColor=#fff2cc;align=center;verticalAlign=top;spacingLeft=4;spacingRight=4;overflow=hidden;rotatable=1;points=[[0,0.5],[1,0.5]];portConstraint=eastwest;fontFamily=Verdana;fontSize=11;movable=1;resizable=1;deletable=1;editable=1;connectable=1;" parent="88" vertex="1">
                    <mxGeometry y="130" width="160" height="26" as="geometry"/>
                </mxCell>
                <mxCell id="94" value="Page" style="text;strokeColor=#d6b656;fillColor=#fff2cc;align=center;verticalAlign=top;spacingLeft=4;spacingRight=4;overflow=hidden;rotatable=1;points=[[0,0.5],[1,0.5]];portConstraint=eastwest;fontFamily=Verdana;fontSize=11;movable=1;resizable=1;deletable=1;editable=1;connectable=1;" parent="88" vertex="1">
                    <mxGeometry y="156" width="160" height="26" as="geometry"/>
                </mxCell>
                <mxCell id="95" value="Page" style="text;strokeColor=#d6b656;fillColor=#fff2cc;align=center;verticalAlign=top;spacingLeft=4;spacingRight=4;overflow=hidden;rotatable=1;points=[[0,0.5],[1,0.5]];portConstraint=eastwest;fontFamily=Verdana;fontSize=11;movable=1;resizable=1;deletable=1;editable=1;connectable=1;" parent="88" vertex="1">
                    <mxGeometry y="182" width="160" height="26" as="geometry"/>
                </mxCell>
            </root>
        </mxGraphModel>
    </diagram>
</mxfile>